<?xml version="1.0" encoding="UTF-8"?>
<svg xmlns="http://www.w3.org/2000/svg" onmouseup="{ if(window.parent.document.onmouseup) window.parent.document.onmouseup(arguments[0]);}" xml:space="preserve" style="enable-background:new 0 0 36 36;" viewBox="0 0 36 36" y="0px" x="0px" id="S_Clock_18_N_2x" version="1.1" xmlns:xlink="http://www.w3.org/1999/xlink"><style type="text/css">
	.st0{fill:#FFFFFF;}
</style><path data-cppathid="10000" d="M18,2C9.2,2,2,9.2,2,18s7.2,16,16,16s16-7.2,16-16S26.8,2,18,2z M18,32c-7.7,0-14-6.3-14-14S10.3,4,18,4  s14,6.3,14,14S25.7,32,18,32z" class="st0"/><path data-cppathid="10001" d="M20,16.1V7c0-0.6-0.4-1-1-1h-2c-0.6,0-1,0.4-1,1v10.6c0,0.3,0.1,0.5,0.3,0.7l5.6,5.6c0.4,0.4,1,0.4,1.4,0  c0,0,0,0,0,0l1.3-1.3c0.4-0.4,0.4-1,0-1.4l-4.4-4.4C20.1,16.6,20,16.4,20,16.1z" class="st0"/></svg>