<?xml version="1.0" encoding="UTF-8"?>
<svg xmlns="http://www.w3.org/2000/svg" onmouseup="{ if(window.parent.document.onmouseup) window.parent.document.onmouseup(arguments[0]);}" xml:space="preserve" style="enable-background:new 0 0 36 36;" viewBox="0 0 36 36" y="0px" x="0px" id="Layer_1" version="1.1" xmlns:xlink="http://www.w3.org/1999/xlink"><style type="text/css">
	.st0{fill:#FFFFFF;}
</style><title/><path data-cppathid="10000" d="M20.2,25.9c0.1,1-0.6,1.9-1.6,2c-0.1,0-0.2,0-0.3,0c-1,0.1-1.9-0.7-2-1.8c0-0.1,0-0.2,0-0.3c0-1.1,0.8-2,1.9-2  C19.3,23.9,20.2,24.8,20.2,25.9C20.2,25.9,20.2,25.9,20.2,25.9z M18,8c-1.6,0-3.1,0.3-4.5,1.1c-0.1,0.1-0.1,0.2-0.1,0.3v3  c0,0.1,0.1,0.1,0.1,0.2c0,0,0.1,0,0.1,0c1.1-0.7,2.4-1,3.7-1c1.8,0,2.5,0.8,2.5,1.9c0,0.9-0.6,1.6-1.5,2.6c-1.4,1.5-2.3,2.4-2.3,3.8  c0,0.8,0.2,1.5,0.7,2.1C16.8,22,17,22,17.1,22h2.6c0.1,0,0.1,0,0.1-0.1c0,0,0-0.1,0-0.1c-0.3-0.5-0.5-1.1-0.5-1.7  c0-0.9,1.1-1.9,2.3-3.1c1.2-1.1,1.9-2.6,1.9-4.2C23.5,10.1,21.5,8,18,8z M35,18c0,9.4-7.6,17-17,17C8.6,35,1,27.4,1,18  C1,8.6,8.6,1,18,1c0,0,0,0,0,0C27.4,1,35,8.6,35,18z M31.3,18c0-7.4-6-13.3-13.3-13.3S4.7,10.6,4.7,18s6,13.3,13.3,13.3c0,0,0,0,0,0  C25.4,31.3,31.3,25.4,31.3,18C31.3,18,31.3,18,31.3,18z" class="st0"/></svg>