<?xml version="1.0" encoding="UTF-8"?>
<svg xmlns="http://www.w3.org/2000/svg" onmouseup="{ if(window.parent.document.onmouseup) window.parent.document.onmouseup(arguments[0]);}" xml:space="preserve" style="enable-background:new 0 0 36 36;" viewBox="0 0 36 36" y="0px" x="0px" id="S_Bookmark_18_N_2x" version="1.1" xmlns:xlink="http://www.w3.org/1999/xlink"><style type="text/css">
	.st0{fill:#707070;}
	.st1{fill:#BB6783;}
</style><path data-cppathid="10000" d="M15.1,34.7L13,31.4l-2.1,3.4c-0.1,0.2-0.4,0.3-0.7,0.2C10,34.9,10,34.7,10,34.6V24h6v10.5  c0,0.3-0.2,0.5-0.5,0.5C15.3,35,15.2,34.9,15.1,34.7z" class="st0"/><path data-cppathid="10001" d="M8,27.4c-1.9-1.1-2.6-3.5-1.5-5.4c0.7-1.2,2-2,3.5-2h10.5c0.3,0,0.6-0.1,0.8-0.4L32.4,4.8  c0.2-0.2,0.1-0.5-0.1-0.7C32.2,4,32.1,4,32,4H16c-0.3,0-0.6,0.1-0.8,0.4L3.5,19.3l0,0c-2.6,3.5-1.8,8.5,1.7,11.1  C6.1,31,7,31.5,8,31.7V27.4z" class="st1"/><path data-cppathid="10002" d="M32,16h-3.2l-9,12H18v4h2.5c0.3,0,0.6-0.1,0.8-0.4l11.1-14.8c0.2-0.2,0.1-0.5-0.1-0.7C32.2,16,32.1,16,32,16z" class="st1"/></svg>